<svg xmlns="http://www.w3.org/2000/svg" viewBox="0 0 636.97 585.14"><defs><style>.cls-1{fill:#2d2e3b;}.cls-2{fill:#f1efe7;}</style></defs><title>Aktiv 3</title><g id="Lag_2" data-name="Lag 2"><g id="Art"><path class="cls-1" d="M313.46,583.48c-63.08-20.9-115.82-44.27-156.78-69.46-36.41-22.38-68.33-47.45-94.89-74.51-45.87-46.73-60-83.41-60.58-84.95L0,351.34l.48-3.41c15.43-110.15,50.4-167.12,66.93-188.71C56.47,140.53,57.36,117,70,90.84c9-18.6,24.46-38.85,42.37-55.56C122.66,25.7,142,9.63,156.19,9.63c.41,0,.81,0,1.21,0,19.06,1.27,51.4,18.55,65.93,26.83,44.24-6.19,81-27.67,90.13-33.39L318.64,0l4.87,3.11c9.16,5.72,45.88,27.2,90.14,33.39,14.53-8.28,46.87-25.56,65.91-26.83.42,0,.82,0,1.22,0,14.19,0,33.53,16.07,43.79,25.65,17.91,16.71,33.35,37,42.37,55.56,12.68,26.15,13.56,49.69,2.62,68.38,16.54,21.59,51.5,78.56,66.94,188.71l.47,3.41-1.21,3.22c-.58,1.54-14.7,38.21-60.58,84.95-26.56,27.06-58.48,52.13-94.89,74.51-41,25.19-93.69,48.56-156.78,69.46l-5,1.66Z"/><path class="cls-2" d="M318.49,579.87h0Zm-41-58.9s22.31,16.84,41,16.84,41-16.84,41-16.84l-21.59-8.25a54.44,54.44,0,0,0-38.82,0Zm41-515.16h0Zm79.7,298.25c-6,1.25-16.75,14.7-16.75,14.7s5,5.3,15.5,8.55,21-6,18.75-13.25S404.21,302.81,398.21,304.06ZM275.35,439.65l-11.41,9s22.56,12.45,54.55,12.46S373,448.6,373,448.6l-11.41-9-43.11,3.63h-.05ZM240,327.31c10.5-3.25,15.5-8.55,15.5-8.55s-10.75-13.45-16.75-14.7-15.25,2.75-17.5,10S229.51,330.56,240,327.31ZM549.1,168.86c-6.2,6.58-11.9,9.41-24.64,3.95-14-6-43-16.5-68-26.5-24.55-9.83-29.75-14.69-27.5-17.5,4-5,30-8,30-8-9-10.5-63.32-25.16-71-33.5C378.45,77,392.2,61.15,397.23,56c-48.51-9.79-77.07-36.56-78.74-37.84-1.67,1.28-30.24,28.05-78.75,37.84,5,5.15,18.79,21,9.27,31.31-7.67,8.34-62,23-71,33.5,0,0,26,3,30,8,2.25,2.81-2.95,7.67-27.5,17.5-25,10-54,20.5-68,26.5-12.74,5.46-18.44,2.63-24.64-3.95C77.37,181.57,39,234.76,22.58,348.74c91.21,137.07,205,169.73,205,169.73-31.56-12.54-41.09-43.07-41.73-44.06l-1.34-2.07,3.82-43.25a42.16,42.16,0,0,0-10.6-31.81c-27.14-30.35-36.62-49.13-35.74-54,1-5.5,29-67.5,38.5-87s24-42.5,26.5-42,5,7,16.5,18,46,32.5,46.67,37.16c1,7,5.33,55.34,5.33,55.34-2,4.5-17,9-32.5,20-4.11,2.92-8.53,8.32-12.84,14.78A143.71,143.71,0,0,0,206.26,436l-.77,31.08c4.89,6.49,25.07,28.25,58.31,41.73L309.85,494v-5.89a235.75,235.75,0,0,1-49-23.32l-.44-.32c-4.09-3.27-8-11.83-9.45-15.36l-1.77-4.22,22.46-17.62,46.82,4,46.81-4,22.46,17.62L386,449.13c-1.48,3.53-5.36,12.09-9.45,15.36l-.44.32a235.5,235.5,0,0,1-49,23.32V494l46,14.77c33.24-13.48,53.43-35.24,58.31-41.73L430.71,436a143.7,143.7,0,0,0-23.9-76.39c-4.32-6.46-8.73-11.86-12.85-14.78-15.5-11-30.5-15.5-32.5-20,0,0,4.33-48.34,5.33-55.34.67-4.66,35.17-26.16,46.67-37.16s14-17.5,16.5-18,17,22.5,26.5,42,37.5,81.5,38.5,87c.88,4.85-8.64,23.75-36,54.27a42.13,42.13,0,0,0-10.66,31.15l3.15,43.61-1.34,2.07c-.63,1-12.06,33.52-40.72,44.06,0,0,115.72-33.33,205-169.73C598,234.76,559.6,181.57,549.1,168.86ZM88.73,133c4.13-11.47,11.19-27.61,21.47-39.72,22.56-26.59,37.17-39.65,60.86-46.87,4.41-1.34,3.91-14.74-.67-15.34a49,49,0,0,0-15.18.29C139.59,34.21,80,88.6,80.87,131.72A4,4,0,0,0,88.73,133ZM465.92,46.39c23.68,7.22,38.3,20.28,60.86,46.87,10.27,12.11,17.33,28.25,21.47,39.72a4,4,0,0,0,7.85-1.26C557,88.6,497.38,34.21,481.76,31.34a49,49,0,0,0-15.18-.29C462,31.65,461.5,45.05,465.92,46.39Z"/></g></g></svg>